<svg xmlns="http://www.w3.org/2000/svg" viewBox="0 0 400 400" width="400" height="400">
  <!-- Red circular arc -->
  <path d="M 50 200 A 150 150 0 1 1 350 200" fill="none" stroke="#FF4757" stroke-width="40" stroke-linecap="round"/>
  
  <!-- Red chart bars -->
  <g fill="#FF4757">
    <rect x="210" y="300" width="25" height="60" rx="4"/>
    <rect x="245" y="280" width="25" height="80" rx="4"/>
    <rect x="280" y="320" width="25" height="40" rx="4"/>
  </g>
  
  <!-- Blue figure -->
  <g fill="#5352ED">
    <!-- Head -->
    <circle cx="280" cy="80" r="20"/>
    
    <!-- Body -->
    <ellipse cx="280" cy="130" rx="15" ry="25"/>
    
    <!-- Raised arm -->
    <ellipse cx="260" cy="110" rx="8" ry="20" transform="rotate(-30 260 110)"/>
    
    <!-- Other arm on hip -->
    <ellipse cx="300" cy="125" rx="8" ry="15" transform="rotate(20 300 125)"/>
    
    <!-- Legs -->
    <ellipse cx="270" cy="180" rx="10" ry="25"/>
    <ellipse cx="290" cy="180" rx="10" ry="25"/>
    
    <!-- Sitting pose - chair/bench -->
    <rect x="240" y="170" width="50" height="15" rx="7" fill="#5352ED" opacity="0.7"/>
  </g>
  
  <!-- Extended red curve at bottom -->
  <path d="M 280 340 Q 320 360 360 340" fill="none" stroke="#FF4757" stroke-width="8" stroke-linecap="round"/>
</svg>